<svg xmlns="http://www.w3.org/2000/svg" viewBox="0 0 455.59 336.35"><defs><style>.cls-1{isolation:isolate;}.cls-2,.cls-3{fill:#ddecff;}.cls-10,.cls-20,.cls-3{mix-blend-mode:multiply;}.cls-4{fill:#60a8ff;}.cls-5{fill:#223a7a;}.cls-25,.cls-6{fill:#fff;}.cls-7{fill:#1c83ff;}.cls-8{fill:#ff9d8c;}.cls-9{fill:#8593b6;}.cls-11{fill:#8e9bbb;}.cls-12{fill:#dee1eb;}.cls-13{fill:#818fb3;}.cls-14{fill:#6baeff;}.cls-15{fill:#43588e;}.cls-16{fill:#f6f7fa;}.cls-17{fill:#d9dee8;}.cls-18{fill:#596b9b;}.cls-19{fill:#7a89af;}.cls-20{fill:#bdc4d7;}.cls-21{fill:#6f7fa9;}.cls-22{fill:#9ca6c3;}.cls-23{fill:#d2e6ff;}.cls-24{fill:#ff5f42;}.cls-25{font-size:12px;font-family:Quicksand-Bold, Quicksand Bold;font-weight:700;}.cls-26{fill:#67acff;}</style></defs><g class="cls-1"><g id="BACKGROUND"><path class="cls-2" d="M84.72,319S30.1,280.07,14.38,213.86s8.28-146.48,53.79-187S195.62,13.59,232,47.52l36.42,33.93s34.76,19,80.27,17.38,86.07,60.41,96.83,109.24-14.89,113.38-14.89,113.38Z"/><path class="cls-3" d="M59.9,328.9s-38.07-20.69-48-68.69S45,168.35,49.14,144.35s-5-53.8,33.1-77,105.93-14.9,131.59-20.69S269.28,1.17,320.59,10.28s101,36.41,103.44,96-16.55,61.24,2.49,93.51S453,254.41,443.9,287.52s-28.14,42.2-28.14,42.2Z"/><path class="cls-3" d="M139.39,318.14c-2.37-2.48-37.1-72,1.57-135.73S276.74,126.14,315.42,151,373,208.07,377,242s-22.11,86.9-22.11,86.9Z"/></g><g id="OBJECTS"><rect class="cls-4" x="362.1" y="168.83" width="54.62" height="32.28" rx="5"/><polygon class="cls-4" points="389.41 213.72 396.49 196.97 382.34 196.97 389.41 213.72"/><polygon class="cls-5" points="389.25 179.42 402.02 179.42 402.02 181.29 408.28 177.68 402.02 174.07 402.02 175.94 389.25 175.94 389.25 179.42"/><polygon class="cls-6" points="408.28 186.77 395.51 186.77 395.51 184.9 389.25 188.51 395.51 192.12 395.51 190.25 408.28 190.25 408.28 186.77"/><path class="cls-5" d="M381.41,190.05l-.61.23a19.35,19.35,0,0,1-2.88-4.52,16.1,16.1,0,0,1-1-5.24l.44-.19-2.7-6.46a5.33,5.33,0,0,0-1.31,1.49c-1.53,2.58-1.37,6.55.16,10.42s3.18,7.32,6.18,9.5a6,6,0,0,0,4.47,1.32Z"/><path class="cls-5" d="M383.34,189.29l-.84.31,2.77,6.62a5.44,5.44,0,0,0,.84-.37,1.61,1.61,0,0,0,.72-2l-1.44-3.64A1.62,1.62,0,0,0,383.34,189.29Z"/><path class="cls-5" d="M376.75,172.74a6.48,6.48,0,0,0-1.08.51l2.76,6.6.93-.39a1.62,1.62,0,0,0,.88-2.07l-1.45-3.72A1.6,1.6,0,0,0,376.75,172.74Z"/><path class="cls-7" d="M126.48,307V232.48s-.82-20.07,9.73-25.86,55-2.69,55-2.69V307Z"/><path class="cls-8" d="M205.14,134.21s-2.69,22.55-3.73,24.41l-1,1.86L195.21,164s9.93,14.07,22.14,16.35,11.17-5,11.17-5l-1.86-3.93,2.48-21.52S207,139.79,205.14,134.21Z"/><path class="cls-6" d="M188.79,165.86l8.07-3.51S202,170.83,214,175.79s12.21,2.07,12.83,0a7.88,7.88,0,0,0-.2-4.34l.88-7.25,4.8,1.6L249,300.55l-42.83,2.07Z"/><path class="cls-5" d="M228.31,164.35s2.9,6.68,5.59,22.41,5.17,42.21,5.79,60.41,1,59.8,1,59.8h54c.63,0,4.35-20.49,4.35-20.49s-23.59-20.2-24.83-23.51c-.83-2.21-.41-43.11-3.93-61.94s-8.07-22.62-17.59-27.31C242.89,168.88,228.31,164.35,228.31,164.35Z"/><path class="cls-9" d="M256.45,283.26a.5.5,0,0,1-.5-.5c0-1.48-.26-22.5-.52-42.82s-.52-41.35-.52-42.84a.51.51,0,0,1,.5-.5.5.5,0,0,1,.5.5c0,1.48.27,22.5.52,42.83s.52,41.34.52,42.83A.5.5,0,0,1,256.45,283.26Z"/><path class="cls-5" d="M148.86,278.21,148.45,307h62.9S214,282.55,213,280.28,148.86,278.21,148.86,278.21Z"/><g class="cls-10"><path class="cls-11" d="M218.86,158a33.13,33.13,0,0,0,8.8,4.73l1.48-12.8s-16.63-7.62-22.27-13.28C208.05,143.09,211,151.62,218.86,158Z"/></g><path class="cls-8" d="M248.59,92.21a44.86,44.86,0,0,1,5.17,16.55c.83,9.1,0,32.48-7.45,42.41s-23,7-30,1c-6.46-5.51-12.83-11.59-14.48-23.59S205.35,93.86,220,89.1,248.59,92.21,248.59,92.21Z"/><path class="cls-8" d="M267.25,294s-.73,0-1.84,0h-.85l-3.68-.1-.88,0c-1.3,0-2.41.13-3.45.07h0c-.22,0-.54,0-.8,0a1.94,1.94,0,0,1-.33,0,4.86,4.86,0,0,1-1.37-.54,93,93,0,0,0-21.46-2.86c-9.24,0-17.53.67-18.88-.46s-2.18-12.76,5.71-13.52l9.7,3.68s22.15-2.63,30.27,3.36S267.25,294,267.25,294Z"/><path class="cls-5" d="M256.52,293.86c-.22,0-.54,0-.8,0a9.39,9.39,0,0,0-.85-1.14c-2.5-2.55-8.54-4.2-10.73-4.73a.38.38,0,0,1-.28-.45.38.38,0,0,1,.46-.28c3.19.77,10,2.74,11.88,6C256.26,293.35,256.42,293.66,256.52,293.86Z"/><path class="cls-5" d="M260.88,293.82l-.88,0c-2.73-5-7.19-6.41-12.71-8.19l-.33-.1a.39.39,0,0,1-.24-.48.39.39,0,0,1,.48-.24l.32.11C253.35,286.76,258.05,288.27,260.88,293.82Z"/><path class="cls-5" d="M265.41,293.93h-.85a21.8,21.8,0,0,0-14.38-10.67.36.36,0,0,1-.31-.43.38.38,0,0,1,.44-.3C257.77,283.92,263.8,290,265.41,293.93Z"/><path class="cls-5" d="M206.79,118.38a19.3,19.3,0,0,0,7.76-8.28,23.54,23.54,0,0,0,2.8-11.58s5.79-.93,14.48,1.65,19,6.11,27.72,1.14,8.69-12.93,4.45-16.24c-4.75-3.71-14.17-1.45-14.17-1.45s3.62-3.52,1.65-5.59-9.1.63-9.1.63-8.69-6.94-25.14-6.11S192.93,84.86,192,97.69s3.72,25.66,3.72,25.66Z"/><g class="cls-10"><path class="cls-11" d="M240.16,121.49c-.93,2.3-.91,5-1.14,7.4-.18,1.9-.53,4.11,1.21,5.39.83.62,4.75,2.27,2.73,3.6a5.3,5.3,0,0,1-2.93.33c-.61,0-1.22-.05-1.82-.1s-1.28-.24-1.93-.24a.38.38,0,0,0-.19.7,8.21,8.21,0,0,0,3.79.9,5.74,5.74,0,0,0,3.14-.55,2.26,2.26,0,0,0,1.44-1.61,2.58,2.58,0,0,0-1.24-2.22c-.78-.58-1.74-.85-2.53-1.41-1.1-.79-1-2.11-.93-3.33.19-2.94.86-5.83,1.12-8.76,0-.45-.57-.45-.72-.1Z"/></g><path class="cls-5" d="M248.62,128.37c-.31,1.74-1.58,3-2.83,2.75s-2-1.81-1.72-3.56,1.58-3,2.83-2.75S248.93,126.62,248.62,128.37Z"/><path class="cls-5" d="M232.79,127c-.28,1.88-1.61,3.24-3,3s-2.23-1.89-2-3.77,1.61-3.25,3-3S233.07,125.11,232.79,127Z"/><path class="cls-5" d="M244.93,121.18a28.46,28.46,0,0,0,2.92.06l.7.08c.17,0-.31,0-.08,0l.15,0,.37.08c.21,0,.41.13.61.17a2.39,2.39,0,0,0,.59.08l.32,0-.2,0a1.5,1.5,0,0,0,.4,0,1.08,1.08,0,0,0,.74-1.31,1.38,1.38,0,0,0-.21-.42,1.83,1.83,0,0,0-.13-.16l.12.13-.13-.17a.66.66,0,0,0-.22-.22l-.23-.17a3,3,0,0,0-.9-.37,7.61,7.61,0,0,0-1.78-.22,11.5,11.5,0,0,0-1.76.14,3.36,3.36,0,0,0-1.51.55,1,1,0,0,0-.46,1,.94.94,0,0,0,.69.81Z"/><path class="cls-5" d="M233.9,118.41c-.13-.08-.27-.14-.4-.21s-.44-.22-.2-.09L233,118a6,6,0,0,0-1.25-.45,8.32,8.32,0,0,0-2.9-.2,6.75,6.75,0,0,0-2.87.9,1.58,1.58,0,0,0-.36.26c-.08.09-.14.18-.21.27l.06-.09a1,1,0,0,0-.44.84.84.84,0,0,0,.45.75,1.24,1.24,0,0,0,1,0H226a2,2,0,0,0,.78,0s.28-.07.1,0,.28,0,.33,0,.37,0,0,0l.18,0,.47-.05c.69-.06,1.37-.09,2.05-.11s1.28,0,1.92,0l.81,0c.15,0,.09,0,0,0l.18,0,.33.11a.94.94,0,0,0,1.13-.56,1,1,0,0,0-.39-1.2Z"/><path class="cls-5" d="M238.81,147.17a9.36,9.36,0,0,1,4.68-4.21c-1.74-.17-9.92-.93-12,.24-2.31,1.32.43,6.59,5.21,6.86a7.82,7.82,0,0,0,1.4-.08A6.94,6.94,0,0,1,238.81,147.17Z"/><path class="cls-12" d="M201,136.07s.83,3.21,5.59,6.93a55.48,55.48,0,0,0,11.65,6.45l.55-2.42s-7.13-3.1-10.44-6.51-3.73-5.28-3.73-5.28Z"/><path class="cls-5" d="M219.62,145.25a6,6,0,0,1,6.24,4.81c.26,2-1.58,4.15-5.88,2.22C214.63,149.89,215.79,145.43,219.62,145.25Z"/><path class="cls-12" d="M204,112.38s1.65-11.89,9.62-20C228.83,77,241.76,77.93,241.76,77.93s-.1-2.17-5-3.83c-4.56-1.55-6.62-.72-6.62-.72s-12.51,1-23.07,12.72-11.69,26.59-11.69,26.59Z"/><path class="cls-6" d="M202.86,110.93c-10-1.69-15.51,6.1-15.93,14s5.3,13.84,12.93,13.24C217,136.79,215.07,113,202.86,110.93Z"/><path class="cls-13" d="M197.9,130.5a6.78,6.78,0,0,1-6.12-3.65,7.57,7.57,0,0,1,.29-7.82.38.38,0,0,1,.52-.1.37.37,0,0,1,.1.52,6.81,6.81,0,0,0-.25,7,6,6,0,0,0,5.65,3.25,6.54,6.54,0,0,0,5.43-2.93,8.25,8.25,0,0,0,.83-7.34,5.59,5.59,0,0,0-5.59-3.67.38.38,0,1,1-.09-.75,6.27,6.27,0,0,1,6.38,4.15,9.08,9.08,0,0,1-.9,8,7.28,7.28,0,0,1-6,3.26Z"/><path class="cls-5" d="M190.66,163s-30.21,7.44-40.76,19.44-15.52,71.18-15.73,82.14,7.45,15.52,12,18.62,24.62,8.69,40.76,9.52,31.45,0,31.45,0a21.54,21.54,0,0,1,2.43-8.69c2.3-4.8,5.22-5.79,5.22-5.79l-13.86-5s-2.42-43.49-6.2-64.55C201.62,184.48,190.66,163,190.66,163Z"/><path class="cls-9" d="M240.72,266.29a.51.51,0,0,1-.2,0,.5.5,0,0,1-.25-.66c2.83-6.38,5.76-18.92,7.41-27.72l.14-.71c.5-2.58,1.12-5.8-.12-8-.63-1.13-2.06-3.59-3.44-6s-2.77-4.77-3.15-5.46c-.73-1.35,1.57-5,4.89-9.91.9-1.33,1.67-2.49,2.12-3.27,1.19-2,.4-3.92-.51-6.1l-.31-.75c-.83-2-1.77-4.06-2.68-6l-1.11-2.41L242,186a189.92,189.92,0,0,0-9.81-19.77.48.48,0,0,1,.17-.68.49.49,0,0,1,.68.17A191.06,191.06,0,0,1,243,185.58l1.46,3.25,1.11,2.41c.91,2,1.86,4,2.69,6.08l.31.74c.93,2.21,1.89,4.5.46,7-.47.81-1.25,2-2.16,3.33-1.73,2.58-5.34,7.95-4.84,8.88.37.67,1.71,3,3.13,5.43s2.82,4.83,3.45,6c1.42,2.54.76,6,.23,8.7l-.14.71c-.6,3.2-3.78,19.6-7.48,27.94A.5.5,0,0,1,240.72,266.29Z"/><path class="cls-9" d="M211.24,268.05a.47.47,0,0,1-.35-.15c-2.35-2.36-13.69-22-14.54-25.69-.46-2,.7-7.15,1.82-12.1.87-3.84,1.77-7.82,1.52-8.89-.39-1.61-3.28-4-6.09-6.27-3.39-2.76-6.89-5.62-7.57-8.2-.77-2.93-.11-21.27.33-33.4.16-4.36.28-7.81.28-9a.5.5,0,0,1,.5-.5h0a.5.5,0,0,1,.5.5c0,1.25-.13,4.7-.28,9.08-.41,11.34-1.09,30.32-.36,33.1.6,2.27,4.12,5.15,7.23,7.69s6,4.87,6.43,6.81c.31,1.3-.53,5-1.51,9.34-1.05,4.62-2.23,9.86-1.82,11.66.83,3.62,12,22.88,14.27,25.21a.5.5,0,0,1-.36.85Z"/><path class="cls-9" d="M170.59,259.47h-.07a.5.5,0,0,1-.43-.56c.37-2.6,6.11-54.4,6.37-58.37a.5.5,0,1,1,1,.06c-.26,4-6,55.84-6.38,58.45A.5.5,0,0,1,170.59,259.47Z"/><path class="cls-9" d="M211.76,273.53a.63.63,0,0,1-.19,0c-1.27-.52-6.89-2.41-14-4.81-14.36-4.84-34-11.47-37.77-13.42a.5.5,0,0,1-.21-.67.49.49,0,0,1,.68-.21c3.67,1.9,24.1,8.79,37.62,13.35,7.13,2.41,12.76,4.3,14.06,4.83a.5.5,0,0,1,.27.65A.48.48,0,0,1,211.76,273.53Z"/><path class="cls-9" d="M204.85,294.16c-12.63,0-37.13-2.28-55.74-8.86a.49.49,0,0,1-.3-.64.48.48,0,0,1,.63-.3c23.51,8.31,56.4,9.73,62.52,8.36a.5.5,0,1,1,.22,1A40.8,40.8,0,0,1,204.85,294.16Z"/><path class="cls-14" d="M60.22,169.94c3.92,3.45,8.89,5.67,12.33,9.65,1.36,1.57,2.58,3.25,3.83,4.89.92,1.2,3.36,3.19,3.76,4.69.17.67.14-.23,0-.9l0-.08c-.34-3.05-.59-6.11-.7-9.18s.09-6.13-.1-9.18c-.27-4.31-1.62-8.48-5.14-11.18-1.72-1.32-3.93-2.12-5.52-3.59s-.9-3,0-4.53A15.82,15.82,0,0,0,70.75,146a8.08,8.08,0,0,0-1.31-5.47c-2-3.44-6.6-7.27-10.9-6.76-3.59.43-4,4.57-3.94,7.45s.32,5.6.35,8.41-.46,5.71-.5,8.58C54.38,163.07,56.63,166.79,60.22,169.94Z"/><path class="cls-14" d="M96.67,214.72a45.78,45.78,0,0,1,3.89-7.4c2.11-3.25,4.45-6.42,5.87-10.06s1.24-7.69,1.38-11.6c.11-2.88,1-5.75.73-8.63-.11-1.38-.9-3.62-2.69-3.39-1.4.18-2.22,1.9-2.76,3a53.41,53.41,0,0,0-2.27,6c-.27.79-.53,1.59-.87,2.35-.2.45-.84,1.53-1.43,1.38-1-.25-.1-4.4,0-5.14.76-3.69,1.91-7.12,2.07-10.92.23-5.51-.2-12.06-5.59-15.08-1.41-.78-3.19-1.25-4.53-.07s-1.69,3.17-1.89,4.83c-.6,5.08.6,9.9,2.23,14.69,1.34,4,3,8,3.06,12.25s-2,7.68-3,11.52a36.31,36.31,0,0,0-1.27,11.35c0,2.49.08,5,.26,7.42.17,2.28.37,4.56.65,6.83.05.45.11.93.17,1.41-.88-2.11-1.18-4.52-1.91-6.64-1.29-3.76-2.78-7.44-4-11.23a92.17,92.17,0,0,0-3.33-9.27c-1.27-2.82-2.79-5.8-5.15-7.87a7.5,7.5,0,0,0-5.06-2,13.83,13.83,0,0,0-3.48.73,3.92,3.92,0,0,1-3.74-.65c-3.87-3-5-8.29-7.9-12.05C54,173.71,49,168.93,45.24,172c-2,1.62-2.51,4.75-2.41,7.15a17.4,17.4,0,0,0,3,8.29c1.67,2.68,3.83,5.08,5.36,7.83a8.33,8.33,0,0,1,.9,5,12.05,12.05,0,0,0,.31,5.07c1.77,5,7.29,4.31,11.59,4.44a32.16,32.16,0,0,1,9.09,1.5,10.11,10.11,0,0,1,6.63,6.52c.85,2.37,1.31,5.05,2.92,7.06A7.38,7.38,0,0,0,85.49,227c1.68.74,6.79,1.07,6.83.6a23.41,23.41,0,0,1,1.33-4.69C94.52,220.12,95.54,217.41,96.67,214.72Z"/><path class="cls-14" d="M120.4,213.78c-.44-2.86-.36-6-1.71-8.65a.39.39,0,0,0-.53-.14c-1,.54-1,2.11-1.09,3.07-.14,1.6,0,3.2-.23,4.79a36.38,36.38,0,0,1-2,8.31,8.93,8.93,0,0,1-6.22,5.61,15.61,15.61,0,0,0-5.45,2.4,11.35,11.35,0,0,0-3.19,4.4c-2,4.51-3,9.55-3.9,14.36-.63,3.24-1.14,6.5-1.93,9.71a94.2,94.2,0,0,0-2.08,9.68c-.08.16-.16.32-.23.49-.21.49.56.76.83.35,3.1-4.78,6.89-9.08,12-11.71,2.33-1.19,5.43-1.44,7.38-3.31,1.48-1.42,1.68-3.59,1.46-5.52-.29-2.54-1.51-4.63-2.78-6.8-.69-1.19-1.52-2.46-1.24-3.91a5.05,5.05,0,0,1,2.53-3.06c2.14-1.34,4.65-1.94,6.41-3.86a10.46,10.46,0,0,0,2.72-6.41A44.23,44.23,0,0,0,120.4,213.78Z"/><path class="cls-14" d="M78,230.29a41.67,41.67,0,0,0-9.78-9c-2-1.32-6.67-3.92-7.62,0-.55,2.28,1.68,4.53,3.15,6,2.21,2.15,4.76,4,6.62,6.48-2.3.73-4.71.88-6.72,2.47-2.37,1.89-3.44,5.54-1.08,7.85a14.67,14.67,0,0,0,4.09,2.51c1.86.9,3.75,1.71,5.65,2.51,4.11,1.71,8.27,3.45,11.77,6.26s6.93,7.71,7.21,12.39c0,.44-.14,0,.13-.17.14.13.63-.1.63-.36a49.29,49.29,0,0,0-4.15-19.89A83.91,83.91,0,0,0,78,230.29Z"/><path class="cls-15" d="M68.56,165.74c1.52,3.14,3.1,6.21,4.78,9.27a76,76,0,0,1,4.44,9c1.49,3.88,3,7.69,4.62,11.53a111.53,111.53,0,0,1,4.27,12.2,145.27,145.27,0,0,1,4.84,24.81,101.64,101.64,0,0,1,.5,12.82c-.09,3.34-.47,6.65-.78,10A58.75,58.75,0,0,0,91,265.8c.25,2.9.71,6.36,3,8.43a.52.52,0,0,0,.81-.63c-2.68-5.49-2.53-11.48-2-17.43.28-3.29.67-6.56.78-9.86a98,98,0,0,0-.42-12.59,148.74,148.74,0,0,0-4.54-24.31,110,110,0,0,0-4-12c-1.56-3.95-3.36-7.78-4.87-11.75-2.73-7.16-6.89-13.52-10.58-20.2-.19-.34-.69,0-.53.31Z"/><path class="cls-15" d="M91.63,224.35c.43-5.22.89-10.25,2.65-15.23.82-2.32,1.82-4.58,2.61-6.91.65-1.93,1.63-4.57,1.13-6.62a.24.24,0,0,0-.45,0c-.34,1.17-.3,2.46-.55,3.66a31.68,31.68,0,0,1-.91,3.44c-.77,2.42-1.78,4.73-2.65,7.1a35.1,35.1,0,0,0-2.19,14.56.18.18,0,0,0,.36,0Z"/><path class="cls-15" d="M61.38,194.35c2.08,5,8.3,5.29,12.84,6.42a12,12,0,0,1,7.35,5.76,43.78,43.78,0,0,1,4.19,10.1s.07,0,.06,0c-1.27-6-3.08-13.22-9.27-16-5-2.24-11.48-1.11-14.65-6.47-.16-.26-.64-.08-.52.22Z"/><path class="cls-15" d="M88.35,223.55c.25.34.48.68.73,1a2.85,2.85,0,0,0,.41.44,1,1,0,0,0,.58.3.13.13,0,0,0,.11-.19,2.32,2.32,0,0,0-.43-.4c-.15-.13-.3-.25-.45-.39s-.55-.57-.84-.85c0-.06-.16,0-.11.08Z"/><path class="cls-15" d="M75.4,239.43a50.26,50.26,0,0,1,9.49,10.21,59.65,59.65,0,0,1,3.45,5.68,63.53,63.53,0,0,1,2.8,6.59c.07.17.37.17.35-.05-.5-4.7-3.48-8.74-5.86-12.65a30.55,30.55,0,0,0-4.44-5.38A40.41,40.41,0,0,0,75.72,239c-.24-.17-.55.23-.32.42Z"/><path class="cls-15" d="M103.85,233.89c-1.72,1-1.77,3.69-1.81,5.43-.06,3.33.76,6.47-.7,9.64-1.32,2.87-3.43,5.27-5.09,7.94-1.56,2.49-3.09,5.68-3.06,8.69,0,.17.27.27.35.09a35.57,35.57,0,0,0,1.3-4.34A18,18,0,0,1,97,256.86c1.6-2.48,3.56-4.73,4.86-7.39,1.36-2.81,1.16-5.59,1.07-8.63-.06-1.94-.25-5.06,1.31-6.5.25-.22-.06-.61-.35-.45Z"/><path class="cls-6" d="M92.35,265.9c-6.94-.1-20.14-.18-20.14-.18L75.47,290a11,11,0,0,0,10.91,9.53H98.31A11,11,0,0,0,109.22,290l3.26-24.27S99.28,265.8,92.35,265.9Z"/><polygon class="cls-16" points="427.45 221.31 387.9 299.66 272.59 300.48 308.17 220.21 427.45 221.31"/><path class="cls-17" d="M196.06,300l0-6.28h74.64l34.35-75.31H424.45l3,2.9H310.83l-35.69,78.62S196.06,299.79,196.06,300Z"/><path class="cls-17" d="M367.57,264.54c-1.3,3.91-8.37,6.93-15.79,6.74s-12.38-3.5-11.08-7.41,8.38-6.92,15.8-6.74S368.87,260.64,367.57,264.54Z"/><path class="cls-6" d="M275.14,300.43a.52.52,0,0,1-.21,0,.51.51,0,0,1-.25-.67l35.83-78.91H427.45a.5.5,0,0,1,0,1H311.15l-35.56,78.33A.49.49,0,0,1,275.14,300.43Z"/><rect class="cls-18" x="53.69" y="305.93" width="137.17" height="30.41"/><rect class="cls-19" x="190.08" y="305.93" width="246.8" height="30.41"/><polygon class="cls-20" points="190.86 305.93 190.08 305.93 53.69 305.93 53.69 311.52 190.08 311.52 190.86 311.52 436.88 311.52 436.88 305.93 190.86 305.93"/><rect class="cls-21" x="47.07" y="299.93" width="149.79" height="7.45"/><rect class="cls-22" x="196.08" y="299.93" width="246.8" height="7.45"/><rect class="cls-6" x="102.38" y="105.33" width="59.28" height="35.03" rx="5.43"/><polygon class="cls-6" points="175.46 122.85 157.27 115.17 157.27 130.52 175.46 122.85"/><circle class="cls-5" cx="120.53" cy="122.85" r="3.35"/><circle class="cls-5" cx="132.02" cy="122.85" r="3.35"/><circle class="cls-5" cx="143.51" cy="122.85" r="3.35"/><path class="cls-4" d="M402.76,31H291a13,13,0,0,0-13,13V97a13,13,0,0,0,13,13h10c.28,4.81-.41,12-4.43,21.1A56.06,56.06,0,0,0,320.8,110h82a13,13,0,0,0,13-13V44A13,13,0,0,0,402.76,31Z"/><path class="cls-6" d="M355.07,56.24H299.62a2.76,2.76,0,0,1-2.76-2.76h0a2.77,2.77,0,0,1,2.76-2.76h55.45a2.77,2.77,0,0,1,2.76,2.76h0A2.76,2.76,0,0,1,355.07,56.24Z"/><path class="cls-23" d="M394.83,72.31H298.55a1.69,1.69,0,0,1-1.69-1.69h0a1.69,1.69,0,0,1,1.69-1.69h96.28a1.69,1.69,0,0,1,1.69,1.69h0A1.69,1.69,0,0,1,394.83,72.31Z"/><path class="cls-23" d="M394.83,81.69H298.55A1.69,1.69,0,0,1,296.86,80h0a1.69,1.69,0,0,1,1.69-1.69h96.28A1.69,1.69,0,0,1,396.52,80h0A1.69,1.69,0,0,1,394.83,81.69Z"/><path class="cls-23" d="M373.83,91.69H298.55A1.69,1.69,0,0,1,296.86,90h0a1.69,1.69,0,0,1,1.69-1.69h75.28A1.69,1.69,0,0,1,375.52,90h0A1.69,1.69,0,0,1,373.83,91.69Z"/><path class="cls-6" d="M394.07,56.24H367.62a2.76,2.76,0,0,1-2.76-2.76h0a2.77,2.77,0,0,1,2.76-2.76h26.45a2.76,2.76,0,0,1,2.76,2.76h0A2.75,2.75,0,0,1,394.07,56.24Z"/><rect class="cls-6" x="295.37" y="153.69" width="34.03" height="24.52" rx="2"/><path class="cls-21" d="M312.6,169.61a.72.72,0,0,1-.48-.17l-16.35-13.5a.75.75,0,1,1,1-1.16l15.85,13.1L328,154.43a.75.75,0,0,1,1,1.14l-15.93,13.86A.76.76,0,0,1,312.6,169.61Z"/><path class="cls-21" d="M296.25,177.65a.75.75,0,0,1-.54-1.27l11.43-12a.75.75,0,1,1,1.08,1l-11.43,12A.71.71,0,0,1,296.25,177.65Z"/><path class="cls-21" d="M328.53,177.21A.71.71,0,0,1,328,177l-11.39-11.42a.75.75,0,1,1,1.06-1.06l11.39,11.42a.75.75,0,0,1,0,1.06A.74.74,0,0,1,328.53,177.21Z"/><circle class="cls-24" cx="330.97" cy="152.93" r="10.03"/><text class="cls-25" transform="translate(323.91 157.17)">85</text><rect class="cls-5" x="369.13" y="132.07" width="66.62" height="17.17" rx="4"/><path class="cls-6" d="M377.36,145.16a.79.79,0,0,1-.63-.29.92.92,0,0,1-.21-.7l.25-2.22q0-.09,0-.12a.2.2,0,0,0-.14,0l-1.83,1.33a.87.87,0,0,1-.7.18.86.86,0,0,1-.59-.44.83.83,0,0,1-.1-.79.87.87,0,0,1,.52-.47l2.05-.93q.09,0,.09-.09s0-.06-.09-.08l-2.05-.93a.83.83,0,0,1-.51-.54,1,1,0,0,1,.09-.73.85.85,0,0,1,.59-.43.89.89,0,0,1,.7.15l1.83,1.35c.06,0,.1.05.14,0s.05-.06,0-.11l-.25-2.23a.9.9,0,0,1,.22-.7.85.85,0,0,1,.68-.28.84.84,0,0,1,.84,1l-.25,2.23s0,.09,0,.11.08,0,.14,0l1.83-1.32a.85.85,0,0,1,.71-.18.77.77,0,0,1,.58.43.86.86,0,0,1,.1.79.88.88,0,0,1-.52.48l-2.06.93c-.05,0-.08.05-.08.08s0,.07.08.09l2.06.93a.9.9,0,0,1,.52.53.84.84,0,0,1-.1.73.79.79,0,0,1-.58.44.91.91,0,0,1-.71-.16l-1.83-1.35a.21.21,0,0,0-.14,0s-.05.06,0,.12l.25,2.22a.79.79,0,0,1-.21.7A.91.91,0,0,1,377.36,145.16Z"/><path class="cls-6" d="M389.48,145.16a.79.79,0,0,1-.63-.29.92.92,0,0,1-.21-.7l.25-2.22c0-.06,0-.1,0-.12a.22.22,0,0,0-.15,0l-1.82,1.33a.9.9,0,0,1-.71.18.88.88,0,0,1-.59-.44.86.86,0,0,1-.1-.79.9.9,0,0,1,.52-.47l2.06-.93c.05,0,.08-.05.08-.09s0-.06-.08-.08l-2.06-.93a.81.81,0,0,1-.5-.54.9.9,0,0,1,.08-.73.87.87,0,0,1,.59-.43.92.92,0,0,1,.71.15l1.82,1.35a.15.15,0,0,0,.15,0,.09.09,0,0,0,0-.11l-.25-2.23a.91.91,0,0,1,.23-.7.92.92,0,0,1,1.32,0,.82.82,0,0,1,.19.7l-.25,2.23s0,.09,0,.11.08,0,.14,0l1.83-1.32a.86.86,0,0,1,.72-.18.78.78,0,0,1,.57.43.83.83,0,0,1,.1.79.85.85,0,0,1-.52.48l-2.05.93c-.06,0-.09.05-.09.08s0,.07.09.09l2.05.93a.88.88,0,0,1,.52.53.8.8,0,0,1-.1.73.79.79,0,0,1-.57.44.93.93,0,0,1-.72-.16l-1.83-1.35a.2.2,0,0,0-.14,0s-.05.06,0,.12l.25,2.22a.79.79,0,0,1-.21.7A.9.9,0,0,1,389.48,145.16Z"/><path class="cls-6" d="M401.61,145.16a.79.79,0,0,1-.63-.29,1,1,0,0,1-.22-.7L401,142q0-.09,0-.12a.2.2,0,0,0-.14,0L399,143.19a.88.88,0,0,1-.7.18.86.86,0,0,1-.59-.44.83.83,0,0,1-.1-.79.87.87,0,0,1,.52-.47l2.05-.93q.09,0,.09-.09s0-.06-.09-.08l-2.05-.93a.83.83,0,0,1-.51-.54.91.91,0,0,1,.09-.73.85.85,0,0,1,.59-.43.9.9,0,0,1,.7.15l1.83,1.35c.06,0,.1.05.14,0s.05-.06,0-.11l-.26-2.23a1,1,0,0,1,.23-.7.85.85,0,0,1,.68-.28.84.84,0,0,1,.84,1l-.25,2.23a.09.09,0,0,0,0,.11.15.15,0,0,0,.15,0l1.82-1.32a.88.88,0,0,1,.72-.18.77.77,0,0,1,.58.43.86.86,0,0,1,.1.79.91.91,0,0,1-.52.48l-2.06.93c-.05,0-.08.05-.08.08s0,.07.08.09l2.06.93a.9.9,0,0,1,.52.53.84.84,0,0,1-.1.73.79.79,0,0,1-.58.44,1,1,0,0,1-.72-.16l-1.82-1.35a.22.22,0,0,0-.15,0s0,.06,0,.12l.25,2.22a.79.79,0,0,1-.21.7A.91.91,0,0,1,401.61,145.16Z"/><path class="cls-6" d="M413.73,145.16a.79.79,0,0,1-.63-.29.92.92,0,0,1-.21-.7l.25-2.22q0-.09,0-.12a.21.21,0,0,0-.14,0l-1.83,1.33a.85.85,0,0,1-1.29-.26.86.86,0,0,1-.1-.79.9.9,0,0,1,.52-.47l2.06-.93c.05,0,.08-.05.08-.09s0-.06-.08-.08l-2.06-.93a.81.81,0,0,1-.5-.54.9.9,0,0,1,.08-.73.87.87,0,0,1,.59-.43.89.89,0,0,1,.7.15l1.83,1.35c.06,0,.11.05.14,0s.05-.06,0-.11l-.25-2.23a.94.94,0,0,1,.22-.7.87.87,0,0,1,.68-.28.83.83,0,0,1,.65.28.82.82,0,0,1,.19.7l-.25,2.23s0,.09,0,.11.08,0,.14,0l1.83-1.32a.86.86,0,0,1,.72-.18.78.78,0,0,1,.57.43.83.83,0,0,1,.1.79.88.88,0,0,1-.52.48l-2.05.93c-.06,0-.09.05-.09.08s0,.07.09.09l2.05.93a.88.88,0,0,1,.52.53.8.8,0,0,1-.1.73.79.79,0,0,1-.57.44.93.93,0,0,1-.72-.16l-1.83-1.35a.2.2,0,0,0-.14,0s-.05.06,0,.12l.25,2.22a.79.79,0,0,1-.21.7A.91.91,0,0,1,413.73,145.16Z"/><path class="cls-26" d="M425.86,145.16a.77.77,0,0,1-.63-.29.93.93,0,0,1-.22-.7l.26-2.22q0-.09,0-.12a.19.19,0,0,0-.14,0l-1.83,1.33a.86.86,0,0,1-1.3-.26.85.85,0,0,1-.09-.79.87.87,0,0,1,.52-.47l2.05-.93q.09,0,.09-.09s0-.06-.09-.08l-2.05-.93a.81.81,0,0,1-.51-.54,1,1,0,0,1,.08-.73.86.86,0,0,1,.6-.43.9.9,0,0,1,.7.15l1.83,1.35a.13.13,0,0,0,.14,0s.05-.06,0-.11l-.26-2.23a.91.91,0,0,1,.23-.7.85.85,0,0,1,.67-.28.84.84,0,0,1,.85,1l-.25,2.23a.09.09,0,0,0,0,.11.13.13,0,0,0,.14,0l1.83-1.32a.88.88,0,0,1,.72-.18.79.79,0,0,1,.58.43.86.86,0,0,1,.1.79.91.91,0,0,1-.52.48l-2.06.93c-.05,0-.08.05-.08.08s0,.07.08.09l2.06.93a.9.9,0,0,1,.52.53.84.84,0,0,1-.1.73.8.8,0,0,1-.58.44,1,1,0,0,1-.72-.16l-1.83-1.35a.19.19,0,0,0-.14,0s0,.06,0,.12l.25,2.22a.79.79,0,0,1-.21.7A.91.91,0,0,1,425.86,145.16Z"/></g></g></svg>