<svg version="1.1" id="Layer_1" xmlns="http://www.w3.org/2000/svg" xmlns:xlink="http://www.w3.org/1999/xlink" viewBox="0 0 380 380" xml:space="preserve" fill="#000000"><g id="SVGRepo_bgCarrier" stroke-width="0"></g><g id="SVGRepo_tracerCarrier" stroke-linecap="round" stroke-linejoin="round"></g><g id="SVGRepo_iconCarrier"> <g id="XMLID_890_"> <g id="XMLID_891_"> <rect id="XMLID_194_" x="40" y="149.742" style="fill:#45B7EF;" width="320" height="30"></rect> <rect id="XMLID_892_" x="190" y="149.742" style="fill:#2FA1DB;" width="170" height="30"></rect> <rect id="XMLID_192_" x="10.909" y="77.076" style="fill:#45B7EF;" width="49.091" height="242.667"></rect> <rect id="XMLID_191_" x="320" y="77.076" style="fill:#2FA1DB;" width="49.091" height="242.667"></rect> <rect id="XMLID_190_" y="309.742" style="fill:#45B7EF;" width="70" height="30"></rect> <rect id="XMLID_189_" x="310" y="309.742" style="fill:#2FA1DB;" width="70" height="30"></rect> </g> <g id="XMLID_893_"> <path id="XMLID_896_" style="fill:#DAE4F4;" d="M275,259.17V124.276c0-3.976-3.044-7.2-6.8-7.2H105v182.667h132.433L275,259.17z"></path> <polygon id="XMLID_899_" style="fill:#C6D6EA;" points="190,117.076 190,299.742 237.433,299.742 275,259.564 275,117.076 "></polygon> <polygon id="XMLID_902_" style="fill:#A7B8CF;" points="237.433,259.564 275,259.564 237.433,299.742 "></polygon> </g> <g id="XMLID_903_"> <path id="XMLID_177_" style="fill:#45B7EF;" d="M332.273,130.712H47.727c-20.334,0-36.818-33.302-36.818-53.636l0,0 c0-20.334,16.484-36.818,36.818-36.818h284.546c20.334,0,36.818,16.484,36.818,36.818l0,0 C369.091,97.41,352.607,130.712,332.273,130.712z"></path> <path id="XMLID_904_" style="fill:#2FA1DB;" d="M332.273,40.258H190v90.455h142.273c20.334,0,36.818-33.302,36.818-53.636l0,0 C369.091,56.742,352.607,40.258,332.273,40.258z"></path> </g> <rect id="XMLID_172_" x="40" y="67.076" style="fill:#DAE4F4;" width="30" height="30"></rect> <rect id="XMLID_168_" x="90" y="67.076" style="fill:#DAE4F4;" width="30" height="30"></rect> </g> </g></svg>