<svg height="200px" width="200px" version="1.1" id="Layer_1" xmlns="http://www.w3.org/2000/svg" xmlns:xlink="http://www.w3.org/1999/xlink" viewBox="0 0 333.73 333.73" xml:space="preserve" fill="#000000"><g id="SVGRepo_bgCarrier" stroke-width="0"></g><g id="SVGRepo_tracerCarrier" stroke-linecap="round" stroke-linejoin="round"></g><g id="SVGRepo_iconCarrier"> <g id="XMLID_990_"> <g id="XMLID_991_"> <path id="XMLID_199_" style="fill:#C6D6EA;" d="M24.138,64.343v257.969c0,6.306,5.112,11.418,11.418,11.418h274.036V0H87.218 L24.138,64.343z"></path> <path id="XMLID_195_" style="fill:#DAE4F4;" d="M166.865,333.73V0H87.218l-63.08,63.718v258.594 c0,6.306,5.112,11.418,11.418,11.418L166.865,333.73L166.865,333.73z"></path> </g> <g id="XMLID_992_"> <g id="XMLID_995_"> <path id="XMLID_996_" style="fill:#2FA1DB;" d="M67.823,98.19c0-4.545,0.852-9.071,2.557-13.582 c1.703-4.509,4.188-8.538,7.456-12.09c3.266-3.55,7.244-6.426,11.929-8.628c4.687-2.199,10.013-3.302,15.978-3.302 c7.101,0,13.261,1.527,18.48,4.58c5.22,3.054,9.108,7.03,11.664,11.929l-13.421,9.374c-0.852-1.988-1.935-3.638-3.249-4.953 c-1.314-1.314-2.752-2.378-4.313-3.196c-1.563-0.816-3.161-1.384-4.793-1.703c-1.635-0.32-3.232-0.48-4.793-0.48 c-3.339,0-6.25,0.676-8.734,2.024c-2.486,1.35-4.545,3.089-6.178,5.22c-1.634,2.13-2.84,4.545-3.621,7.243 c-0.783,2.699-1.172,5.433-1.172,8.202c0,2.983,0.462,5.859,1.385,8.628c0.922,2.77,2.253,5.22,3.995,7.351 c1.739,2.13,3.834,3.817,6.284,5.059c2.451,1.243,5.201,1.864,8.256,1.864c1.561,0,3.177-0.195,4.846-0.585 c1.668-0.389,3.266-0.993,4.793-1.811c1.527-0.816,2.929-1.88,4.208-3.195c1.279-1.313,2.307-2.929,3.089-4.846l14.274,8.415 c-1.137,2.769-2.823,5.255-5.059,7.456c-2.238,2.202-4.812,4.048-7.723,5.539c-2.912,1.492-6.002,2.628-9.267,3.408 c-3.267,0.781-6.463,1.172-9.587,1.172c-5.469,0-10.492-1.118-15.072-3.356c-4.58-2.236-8.521-5.201-11.823-8.894 c-3.303-3.692-5.859-7.883-7.67-12.57C68.73,107.776,67.823,103.019,67.823,98.19z"></path> <path id="XMLID_998_" style="fill:#2FA1DB;" d="M105.105,140.282c-5.903,0-11.417-1.231-16.389-3.66 c-4.909-2.396-9.196-5.623-12.743-9.589c-3.527-3.944-6.297-8.482-8.232-13.489c-1.937-5.014-2.918-10.18-2.918-15.354 c0-4.888,0.926-9.813,2.751-14.643c1.831-4.848,4.541-9.242,8.054-13.061c3.515-3.819,7.842-6.952,12.862-9.312 c5.071-2.38,10.875-3.586,17.254-3.586c7.607,0,14.335,1.679,19.996,4.99c5.691,3.33,10.001,7.749,12.809,13.132l1.219,2.338 l-18.604,12.993l-1.453-3.388c-0.699-1.628-1.578-2.978-2.613-4.013c-1.092-1.093-2.297-1.987-3.583-2.66 c-1.295-0.677-2.635-1.154-3.98-1.419c-1.437-0.28-2.856-0.423-4.216-0.423c-2.815,0-5.272,0.559-7.303,1.661 c-2.102,1.142-3.861,2.624-5.229,4.407c-1.396,1.82-2.446,3.924-3.121,6.253c-0.699,2.41-1.053,4.889-1.053,7.366 c0,2.646,0.414,5.229,1.231,7.679c0.802,2.41,1.97,4.563,3.472,6.401c1.466,1.796,3.255,3.236,5.317,4.282 c2.042,1.036,4.298,1.539,6.899,1.539c1.327,0,2.728-0.17,4.162-0.506c1.407-0.329,2.773-0.845,4.06-1.535 c1.251-0.668,2.418-1.556,3.474-2.642c1.001-1.028,1.829-2.335,2.462-3.888l1.311-3.215l19.502,11.498l-0.987,2.404 c-1.287,3.134-3.215,5.979-5.73,8.454c-2.443,2.404-5.29,4.446-8.459,6.07c-3.112,1.595-6.456,2.825-9.938,3.656 C111.91,139.86,108.45,140.282,105.105,140.282z M105.744,63.59c-5.491,0-10.438,1.015-14.704,3.017 c-4.311,2.026-8.011,4.699-10.997,7.943c-2.991,3.251-5.298,6.992-6.856,11.119c-1.569,4.148-2.364,8.361-2.364,12.521 c0,4.432,0.846,8.87,2.515,13.191c1.672,4.329,4.064,8.249,7.107,11.651c3.027,3.385,6.695,6.144,10.903,8.198 c6.537,3.193,14.385,3.938,22.645,1.96c3.018-0.72,5.91-1.783,8.597-3.16c2.627-1.346,4.979-3.03,6.987-5.008 c1.289-1.268,2.374-2.655,3.244-4.145l-9.143-5.39c-0.636,1.008-1.355,1.925-2.151,2.742c-1.485,1.528-3.149,2.79-4.944,3.748 c-1.747,0.936-3.606,1.639-5.524,2.086c-5.583,1.307-10.825,0.665-15.142-1.523c-2.813-1.427-5.252-3.391-7.25-5.838 c-1.965-2.404-3.485-5.197-4.518-8.301c-1.021-3.061-1.539-6.283-1.539-9.575c0-3.043,0.434-6.083,1.291-9.037 c0.883-3.048,2.271-5.818,4.123-8.233c1.882-2.455,4.28-4.483,7.127-6.029c2.92-1.584,6.34-2.388,10.166-2.388 c1.745,0,3.551,0.18,5.369,0.535c1.914,0.375,3.799,1.045,5.607,1.989c1.828,0.957,3.524,2.213,5.045,3.734 c0.794,0.794,1.521,1.691,2.173,2.684l8.381-5.854c-2.239-3.366-5.318-6.208-9.185-8.47 C117.98,64.992,112.272,63.59,105.744,63.59z"></path> </g> <g id="XMLID_1001_"> <path id="XMLID_1002_" style="fill:#CF599B;" d="M249.396,136.749v-45.27l-16.403,32.914h-9.374l-16.403-32.914v45.27h-17.47 V61.122h18.96l19.6,39.518l19.705-39.518h18.854v75.627H249.396z"></path> <path id="XMLID_1004_" style="fill:#CF599B;" d="M269.865,139.749h-23.469v-35.524l-11.546,23.169h-13.087l-11.546-23.169v35.524 h-23.47V58.122h23.821l17.746,35.78l17.841-35.78h23.71V139.749z M252.396,133.749h11.469V64.122h-13.998l-21.568,43.255 l-21.453-43.255h-14.1v69.627h11.47V78.734l21.26,42.659h5.66l21.26-42.659L252.396,133.749L252.396,133.749z"></path> </g> <g id="XMLID_1007_"> <path id="XMLID_1008_" style="fill:#FAE16E;" d="M85.825,197.514l16.297,34.724l16.51-34.724h19.067l-26.949,49.85v25.777H93.388 v-25.99l-26.523-49.637H85.825z"></path> <path id="XMLID_1010_" style="fill:#FAE16E;" d="M113.75,276.14H90.387v-28.238L61.86,194.513h25.871l14.408,30.701 l14.597-30.701h25.995l-28.981,53.609V276.14z M96.387,270.14h11.362v-23.535l24.917-46.092h-12.139l-18.423,38.748 l-18.185-38.748h-12.05L96.387,246.4V270.14z"></path> </g> <g id="XMLID_1013_"> <path id="XMLID_1014_" style="fill:#333233;" d="M194.965,273.141v-75.627h17.47v32.595l27.693-32.595h19.6l-28.334,33.765 l30.252,41.862h-19.919l-21.41-30.464l-7.882,8.202v22.262H194.965z"></path> <path id="XMLID_1016_" style="fill:#333233;" d="M267.516,276.14h-27.348l-20.211-28.759l-4.521,4.705v24.054h-23.47v-81.627 h23.47v27.431l23.306-27.431h27.421l-30.967,36.903L267.516,276.14z M243.285,270.14h12.491l-28.183-38.999l25.701-30.628 h-11.778l-32.081,37.759v-37.759h-11.47v69.627h11.47v-20.47l11.242-11.697L243.285,270.14z"></path> </g> </g> </g> </g></svg>